<?xml version="1.0" encoding="UTF-8"?>
<!DOCTYPE svg PUBLIC "-//W3C//DTD SVG 1.1//EN" "http://www.w3.org/Graphics/SVG/1.1/DTD/svg11.dtd">
<!-- Creator: CorelDRAW X8 -->
<svg xmlns="http://www.w3.org/2000/svg" xml:space="preserve" width="45.8333in" height="27.7778in" version="1.1" style="shape-rendering:geometricPrecision; text-rendering:geometricPrecision; image-rendering:optimizeQuality; fill-rule:evenodd; clip-rule:evenodd"
viewBox="0 0 45833 27778"
 xmlns:xlink="http://www.w3.org/1999/xlink">
 <defs>
  <style type="text/css">
   <![CDATA[
    .str0 {stroke:black;stroke-width:3}
    .fil4 {fill:#FEFEFE;fill-rule:nonzero}
    .fil13 {fill:#5B5B5B;fill-rule:nonzero}
    .fil7 {fill:#434242;fill-rule:nonzero}
    .fil15 {fill:#2B2A29;fill-rule:nonzero}
    .fil3 {fill:#B2B09C;fill-rule:nonzero}
    .fil5 {fill:#5B5A50;fill-rule:nonzero}
    .fil2 {fill:#B2AD81;fill-rule:nonzero}
    .fil24 {fill:#FFF383;fill-rule:nonzero}
    .fil19 {fill:#FFED00;fill-rule:nonzero}
    .fil23 {fill:#F5B2B6;fill-rule:nonzero}
    .fil9 {fill:#A76281;fill-rule:nonzero}
    .fil25 {fill:#F08365;fill-rule:nonzero}
    .fil12 {fill:#E51A4B;fill-rule:nonzero}
    .fil20 {fill:#E31E24;fill-rule:nonzero}
    .fil17 {fill:#D2CDE7;fill-rule:nonzero}
    .fil6 {fill:#B0CB1F;fill-rule:nonzero}
    .fil18 {fill:#A79ECD;fill-rule:nonzero}
    .fil22 {fill:#5CA595;fill-rule:nonzero}
    .fil1 {fill:#00A0E3;fill-rule:nonzero}
    .fil16 {fill:#009846;fill-rule:nonzero}
    .fil0 {fill:black;fill-rule:nonzero}
    .fil10 {fill:#201D40;fill-rule:nonzero}
    .fil8 {fill:#2C2858;fill-rule:nonzero}
    .fil11 {fill:#E3EAFF;fill-rule:nonzero}
    .fil14 {fill:#F37A50;fill-rule:nonzero}
    .fil21 {fill:white;fill-rule:nonzero}
   ]]>
  </style>
 </defs>
 <g id="Layer_x0020_1">
  <metadata id="CorelCorpID_0Corel-Layer"/>
  <polygon class="fil0" points="-4,27845 45830,27845 45830,68 -4,68 "/>
  <path class="fil1" d="M42339 23145c1106,4755 -1986,5243 -4688,5293 -885,17 -1729,-13 -2369,44 -139,13 -268,29 -386,51 -183,35 -364,67 -541,97 -682,115 -1320,199 -1921,257 -261,25 -516,46 -764,62 -1815,117 -3285,2 -4629,-158 -151,-18 -300,-36 -448,-55 -2150,-272 -4031,-603 -6593,-170 -18,3 -36,6 -54,9 -120,21 -237,39 -350,54 -2346,317 -3241,-497 -4666,-603 -430,-32 -909,0 -1490,148 -55,17 -112,35 -170,54 -267,85 -560,185 -872,293 -281,97 -576,200 -881,304 -913,312 -1904,632 -2804,816 -552,114 -1069,177 -1514,156 -3266,-152 -5706,-1612 -5434,-5850 224,-1276 1047,-3202 1033,-4498 -15,-1454 -451,-1933 -905,-3315 -696,-3311 1589,-5129 4422,-5885 405,-108 821,-194 1241,-260l0 0c342,-54 686,-94 1029,-121 447,-35 891,-48 1325,-42 131,2 261,6 390,12 2049,90 4202,426 6002,-288 2202,-874 3190,-2259 6381,-1553 874,193 2204,-787 3395,-386 3026,1028 1372,2144 4239,2578 1358,168 1724,-1306 4156,-497 3735,970 3774,1179 4152,1326 3,0 365,135 405,149 149,52 300,102 450,150 675,218 1326,394 1731,549 7401,2829 407,8181 1128,11279z"/>
  <path class="fil2" d="M34355 28630c-135,-710 -273,-1417 -401,-2066 -145,-733 -279,-1393 -382,-1901 -2,-9 -3,-17 -5,-26 -127,-625 -208,-1014 -208,-1014l468 -54 1370 -160 768 -89 0 0 1506 -175c0,0 29,594 64,1487 40,1026 90,2445 116,3806 -885,17 -1729,-13 -2369,44 -139,13 -268,29 -386,51 -183,35 -364,67 -541,97z"/>
  <path class="fil3" d="M36082 23321c0,0 -94,652 -242,1628 -24,158 -49,324 -76,497 -72,468 -152,987 -238,1531 -78,488 -160,997 -244,1505 -139,13 -268,29 -386,51 -183,35 -364,67 -541,97 -682,115 -1320,199 -1921,257 -261,25 -516,46 -764,62 -15,-1919 -53,-3866 -74,-4904l0 -1c-11,-478 -18,-763 -18,-763l569 5 228 2 611 5 542 5 1643 15 794 7 0 0 117 1z"/>
  <path class="fil4" d="M38607 14256c-125,202 -347,436 -274,740l-766 99c13,-739 68,-1601 238,-1848 143,-209 174,-330 213,-327 39,4 258,83 82,407 -220,408 257,370 509,-593 63,-241 409,-535 457,-306 53,251 110,908 -459,1828z"/>
  <polygon class="fil4" points="35726,13644 35727,13644 36287,14043 36579,15967 35432,16398 34357,15690 34497,13052 "/>
  <path class="fil4" d="M34337 11533c-302,1508 703,3068 1887,3305 1185,238 2101,-937 2403,-2445 303,-1508 -413,-2923 -1597,-3161 -1185,-237 -2390,793 -2693,2301z"/>
  <path class="fil0" d="M37599 12431c13,116 117,198 233,185 115,-13 198,-117 185,-233 -14,-115 -118,-198 -233,-184 -115,13 -198,117 -185,232z"/>
  <path class="fil0" d="M36007 12227c15,125 128,214 253,200 124,-15 214,-127 200,-252 -15,-125 -128,-215 -253,-200 -124,14 -214,127 -200,252z"/>
  <path class="fil0" d="M37087 12367c145,332 329,738 329,738 0,0 -159,303 -581,245 189,-48 384,-141 347,-390 -37,-249 -95,-593 -95,-593z"/>
  <path class="fil0" d="M38263 12008c2,8 4,15 4,23 3,54 -39,101 -94,103 -148,7 -452,-55 -537,-344 -14,-53 15,-107 67,-122 52,-16 107,14 123,66 63,214 335,203 338,203 46,-2 87,28 99,71z"/>
  <path class="fil0" d="M35667 11590c-5,7 -9,14 -12,22 -22,53 4,115 58,136 147,60 473,103 660,-157 33,-47 23,-112 -24,-146 -47,-34 -113,-23 -147,24 -138,192 -408,86 -410,85 -46,-19 -98,-2 -125,36z"/>
  <path class="fil4" d="M34696 11494c168,321 90,692 -172,828 -263,137 -611,-12 -778,-333 -167,-320 -90,-691 172,-828 263,-137 611,12 778,333z"/>
  <path class="fil0" d="M34233 12115c12,0 25,-4 35,-10 161,-87 239,-231 208,-387 -31,-159 -166,-287 -320,-304 -44,-5 -83,27 -88,70 -4,44 27,83 70,87 85,10 165,88 183,178 16,86 -28,164 -128,217 -38,21 -53,69 -32,108 15,27 43,42 72,41z"/>
  <path class="fil0" d="M37324 14177c-12,-2 -25,-7 -37,-15 -631,-475 -1197,-162 -1203,-159 -37,22 -85,9 -106,-29 -21,-37 -8,-85 29,-106 27,-15 662,-366 1374,170 35,26 41,74 15,109 -17,23 -45,33 -72,30z"/>
  <path class="fil5" d="M31456 23974c812,441 2458,761 3363,876 1320,168 2041,162 2711,-175 255,-2068 703,-6758 163,-9081 0,0 -551,-349 -1240,-460 0,0 -349,1605 -1922,-361 -731,-390 -2208,-104 -2208,-104 -1320,1143 -1161,6863 -867,9305z"/>
  <path class="fil6" d="M38404 14884c0,0 2333,5770 -27,6994 -831,-253 -1124,-1297 -1090,-2545 63,-2363 171,-4369 171,-4369l946 -80z"/>
  <path class="fil6" d="M33500 19566c-273,323 -650,2276 -504,2301 1763,690 5498,-2756 5498,-2756l-363 -941c0,0 -2217,416 -4631,1396z"/>
  <path class="fil6" d="M31619 16409c148,1226 414,4364 1377,5458l1256 -1688c0,0 113,-3559 -485,-4987 -463,-1102 -2394,-784 -2148,1217z"/>
  <path class="fil7" d="M43275 15342c0,0 -87,-187 -1133,-408 192,390 616,599 616,599l517 -191z"/>
  <path class="fil0" d="M41920 17295c-1059,903 -2040,1205 -2684,663 -579,-487 -952,-1801 -66,-3119 439,-653 1045,-1339 1434,-1674 200,-49 649,1018 1359,1623 663,565 1023,611 1312,554 -171,436 -754,1440 -1355,1953z"/>
  <path class="fil4" d="M41817 16541c-72,85 -200,95 -285,23 -85,-73 -95,-201 -22,-285 72,-85 200,-96 285,-23 85,72 95,200 22,285z"/>
  <path class="fil4" d="M40516 15368c-73,85 -200,95 -285,23 -85,-73 -95,-200 -23,-285 73,-85 200,-95 285,-23 85,73 95,200 23,285z"/>
  <path class="fil4" d="M41006 16015c-44,302 -92,675 -92,675 0,0 -249,147 -526,-83 157,51 339,70 422,-125 84,-195 196,-467 196,-467z"/>
  <path class="fil4" d="M40444 17287c61,-20 89,-100 46,-128 -109,-74 -286,-199 -437,-339 -150,-140 -288,-307 -369,-411 -32,-41 -109,-6 -125,55 -48,191 -82,514 148,729 230,214 551,156 737,94z"/>
  <path class="fil4" d="M42243 16438c-1,0 -2,0 -4,0 -45,-7 -76,-49 -69,-94 32,-219 -171,-326 -173,-327 -40,-21 -57,-71 -36,-111 21,-41 71,-57 112,-36 12,6 310,163 260,498 -6,44 -46,75 -90,70z"/>
  <path class="fil4" d="M40194 14771c0,1 0,2 1,3 18,42 66,62 108,44 204,-86 358,84 360,85 30,35 82,38 116,7 35,-30 38,-82 8,-116 -10,-11 -236,-260 -548,-128 -41,17 -61,63 -45,105z"/>
  <path class="fil4" d="M38505 19047c-172,-414 -457,-673 -249,-1222 76,-200 173,-402 278,-639 162,-367 357,-651 442,-637 190,34 210,153 153,385 -45,179 -230,367 -147,511 74,129 205,243 744,-45 689,-368 868,-616 1013,-405 96,139 -232,350 -875,711 399,-56 1124,-747 1280,-432 113,228 -963,715 -1257,782 563,-2 1183,-582 1291,-457 211,275 -644,732 -1146,764 489,99 809,-270 894,-135 158,251 -789,697 -1389,741 -177,13 -1032,78 -1032,78z"/>
  <polygon class="fil8" points="31254,18428 29083,20862 30217,22381 31448,21652 "/>
  <path class="fil9" d="M26949 14952c0,0 5954,4701 4561,8125 -644,485 -4093,-4279 -4093,-4279l-468 -3846z"/>
  <path class="fil10" d="M27041 28791c-151,-18 -300,-36 -448,-55 -2150,-272 -4031,-603 -6593,-170 -18,3 -36,6 -54,9 -120,21 -237,39 -350,54l53 -1144 0 0 7 -160 7 -138 0 0 134 -2887c401,47 801,85 1200,115 10,1 20,1 30,2 100,7 199,14 299,21 16,1 33,2 50,3 116,7 233,14 350,20 702,35 1401,46 2098,31 204,-4 408,-10 612,-19 205,-8 410,-19 615,-32 12,0 24,-1 35,-2 146,-9 292,-20 437,-31 25,-2 51,-4 76,-6 150,-12 299,-26 449,-40 99,-10 198,-20 297,-30 99,-11 198,-22 297,-34 37,-4 73,-9 110,-13l153 3034 136 1472z"/>
  <polygon class="fil11" points="24488,14822 24174,14805 21819,14805 21592,17284 20991,24874 25603,24744 25498,16343 "/>
  <path class="fil12" d="M19378 14595c0,0 -1304,7576 -771,11968 1136,1447 2626,1386 2626,1386 0,0 202,-12260 1016,-13144 -783,-89 -2871,-210 -2871,-210z"/>
  <path class="fil12" d="M27690 26563c-1136,1447 -2626,1386 -2626,1386 0,0 253,-12798 -890,-13144 705,24 2775,147 2775,147 0,0 1878,10165 741,11611z"/>
  <path class="fil9" d="M22145 14794c0,0 -2058,-1279 -912,13155 679,-1577 912,-13155 912,-13155z"/>
  <path class="fil4" d="M22204 15017c0,0 303,433 921,463 796,38 1021,-410 1021,-410l125 -1800 -2126 0 59 1747z"/>
  <path class="fil4" d="M23208 8566c-2745,-64 -2118,3633 -1918,4214 109,316 806,1531 1926,1548 1119,-17 1801,-1232 1910,-1548 200,-581 922,-4171 -1918,-4214z"/>
  <path class="fil0 str0" d="M23800 10922c-34,0 -69,-13 -96,-39 -56,-53 -58,-142 -5,-197 16,-17 399,-411 980,-334 77,10 131,80 120,157 -10,76 -80,130 -156,120 -442,-59 -739,246 -742,249 -27,29 -64,44 -101,44z"/>
  <path class="fil0" d="M22630 10922c35,0 69,-13 96,-39 56,-53 58,-142 5,-197 -16,-17 -399,-411 -980,-334 -77,10 -130,80 -120,157 10,76 80,130 156,120 442,-59 739,246 742,249 27,29 64,44 101,44z"/>
  <path class="fil0" d="M24416 11145c0,124 -101,224 -224,224 -124,0 -224,-100 -224,-224 0,-123 100,-223 224,-223 123,0 224,100 224,223z"/>
  <path class="fil0" d="M22496 11145c0,124 -100,224 -224,224 -124,0 -224,-100 -224,-224 0,-123 100,-223 224,-223 124,0 224,100 224,223z"/>
  <path class="fil0" d="M23886 13165c0,36 -4,64 -14,85 -66,155 -355,-21 -678,-21 -337,0 -594,193 -633,-3 -4,-17 -6,-37 -6,-61 0,-293 298,-529 666,-529 367,0 665,236 665,529z"/>
  <path class="fil13" d="M23335 11395c180,286 408,634 408,634 0,0 -103,303 -502,308 169,-70 335,-184 266,-409 -70,-224 -172,-533 -172,-533z"/>
  <path class="fil14" d="M21612 11431c170,332 71,721 -220,870 -291,148 -665,-1 -834,-333 -169,-332 -71,-722 220,-870 292,-149 665,0 834,333z"/>
  <path class="fil4" d="M24919 11431c-169,332 -71,721 221,870 291,148 664,-1 833,-333 169,-332 71,-722 -220,-870 -291,-149 -665,0 -834,333z"/>
  <path class="fil15" d="M22890 13505l189 45c58,13 113,22 165,25 54,5 104,-1 158,-12 56,-10 110,-36 180,-58 -22,66 -65,130 -129,169 -63,41 -142,63 -218,56 -75,-5 -146,-31 -206,-69 -58,-40 -109,-90 -139,-156z"/>
  <path class="fil15" d="M23872 13250c-66,155 -355,-21 -678,-21 -337,0 -594,193 -633,-3 112,-140 359,-238 646,-238 303,0 562,109 665,262z"/>
  <path class="fil4" d="M20276 16792c0,0 64,-335 101,-577 425,74 1259,426 1259,426l-121 540 -1239 -389z"/>
  <path class="fil9" d="M21740 17046l-1520 -388c0,0 -1873,2483 -2108,4902 -234,2419 1830,1240 1830,1240 1136,-748 1527,-3801 1798,-5754z"/>
  <path class="fil0" d="M22421 12074c356,1486 -194,2985 -1075,3328 -793,308 -2288,-33 -3108,-1615 -406,-785 -756,-1752 -876,-2315 59,-223 1302,-167 2280,-540 915,-348 1471,-1212 1779,-1139 336,404 794,1419 1000,2281z"/>
  <path class="fil4" d="M19430 12322c21,-24 33,-55 32,-90 -4,-71 -64,-126 -135,-122 -21,1 -526,29 -824,479 -39,59 -23,139 36,178 60,40 139,23 179,-36 226,-342 617,-364 621,-364 37,-2 69,-19 91,-45z"/>
  <path class="fil4" d="M20678 11826c-31,-4 -61,-20 -83,-47 -45,-55 -37,-136 19,-181 16,-13 412,-328 934,-190 69,18 109,88 91,157 -18,69 -88,110 -157,92 -397,-105 -703,139 -706,141 -29,23 -64,32 -98,28z"/>
  <path class="fil4" d="M21340 12096c45,117 -14,248 -131,293 -117,44 -248,-14 -293,-132 -45,-117 14,-248 131,-293 117,-44 248,15 293,132z"/>
  <path class="fil4" d="M19484 12746c45,117 -14,248 -131,293 -118,44 -249,-14 -293,-131 -45,-118 14,-249 131,-293 117,-45 248,14 293,131z"/>
  <path class="fil4" d="M20385 12612c273,205 616,454 616,454 0,0 10,324 -365,473 134,-127 251,-296 103,-483 -147,-188 -354,-444 -354,-444z"/>
  <path class="fil4" d="M21431 13864c13,-71 -50,-142 -101,-115 -132,68 -351,175 -569,248 -219,72 -458,118 -604,142 -57,9 -65,104 -13,153 162,149 462,358 797,246 335,-111 451,-458 490,-674z"/>
  <path class="fil4" d="M21637 16665c-498,-76 -873,15 -1318,-473 -83,-90 -151,-257 -426,-510 -263,-85 -334,-342 -264,-460 214,105 569,156 756,160 165,3 345,-163 383,-848 48,-875 -87,-1192 201,-1208 189,-11 200,427 172,1254 178,-416 -62,-1514 331,-1480 285,24 125,1341 19,1661 325,-541 130,-1474 313,-1504 386,-44 327,1043 66,1545 380,-413 212,-935 390,-938 334,-6 25,1192 -281,1794 -91,178 -342,1007 -342,1007z"/>
  <path class="fil9" d="M25064 27949c0,0 253,-12798 -890,-13144 0,0 1125,124 1429,1973 305,1850 298,5804 -539,11171z"/>
  <path class="fil9" d="M19307 15030c0,0 -3456,3323 -1131,7492 321,-508 1899,-5399 1131,-7492z"/>
  <path class="fil16" d="M6771 16521c0,0 -1504,2203 -1153,3720 350,1518 2900,1213 2900,1213l-1747 -4933z"/>
  <path class="fil17" d="M14325 26561c0,0 -349,659 -885,1613 -57,5 -113,23 -170,54 -267,85 -560,185 -872,293 -281,97 -576,200 -881,304 -913,312 -1904,632 -2804,816 304,-877 602,-3044 857,-3599l0 -1c436,-949 746,-1586 746,-1586l1520 798 1196 629 902 473 391 206z"/>
  <path class="fil18" d="M16032 27877c-296,45 -670,97 -1102,149 -430,-32 -909,0 -1490,148 -57,5 -113,23 -170,54 -267,85 -560,185 -872,293 -281,97 -576,200 -881,304 -74,-925 -138,-2098 -187,-2447l0 0c-83,-600 -129,-971 -129,-971l635 -154 1249 -303 850 -205 327 -80 1737 -420c0,0 8,310 17,828 1,110 3,229 5,357 0,0 0,0 0,0 3,217 6,459 8,720 4,513 6,1101 3,1727z"/>
  <path class="fil19" d="M11810 14794l-3765 1045 -1274 682c150,2118 2581,9468 2581,9468 0,0 2449,626 3845,490 1915,-186 3268,-1381 3268,-1381 -167,-2239 -1006,-4942 -2247,-7644 -474,-1032 -1387,-2380 -2408,-2660z"/>
  <path class="fil16" d="M8045 15839c0,0 -60,1328 1241,1147 1300,-180 1451,-1346 1376,-1851 -172,25 -2617,704 -2617,704z"/>
  <path class="fil4" d="M8993 13945l-1 0 -871 168 190 2096c0,0 65,495 974,469 780,-22 1166,-1127 1166,-1127l-466 -1789 -992 183z"/>
  <path class="fil4" d="M10299 12565c39,1531 -733,2788 -1935,2819 -1203,31 -2210,-1186 -2249,-2717 -39,-1532 904,-2798 2107,-2829 1203,-30 2038,1195 2077,2727z"/>
  <path class="fil0" d="M7589 12972c-171,317 -390,703 -390,703 0,0 131,315 556,294 -184,-64 -369,-174 -311,-417 59,-244 145,-580 145,-580z"/>
  <path class="fil4" d="M10126 12456c-219,286 -207,663 27,842 235,179 602,93 821,-194 218,-286 206,-663 -28,-842 -234,-179 -602,-92 -820,194z"/>
  <path class="fil0" d="M10474 13144c-12,-2 -23,-7 -33,-15 -143,-113 -194,-268 -137,-415 57,-151 211,-254 365,-244 44,3 77,40 74,84 -3,43 -40,76 -83,73 -85,-5 -177,58 -209,143 -32,82 -1,166 88,235 34,27 40,77 13,111 -20,24 -50,34 -78,28z"/>
  <path class="fil0" d="M8130 12912c-83,-96 -73,-240 23,-323 95,-83 239,-73 322,22 83,95 74,240 -22,323 -95,83 -240,73 -323,-22z"/>
  <path class="fil0" d="M6839 13102c-88,76 -220,67 -297,-21 -76,-87 -67,-220 21,-296 87,-76 220,-67 296,20 76,88 67,220 -20,297z"/>
  <path class="fil0" d="M7829 12508c-23,0 -46,-8 -66,-23 -46,-36 -54,-104 -17,-150 13,-16 324,-403 861,-286 58,13 95,69 82,127 -13,58 -69,94 -127,82 -408,-89 -646,206 -649,209 -21,27 -52,41 -84,41z"/>
  <path class="fil0" d="M6973 12615c-13,0 -26,-3 -39,-8 -4,-1 -324,-125 -569,-3 -53,26 -117,4 -143,-48 -26,-53 -5,-117 48,-144 331,-165 726,-10 743,-3 55,22 81,84 59,139 -16,41 -57,67 -99,67z"/>
  <path class="fil0" d="M7477 14746c-21,0 -42,-8 -57,-25 -30,-31 -28,-80 3,-110 17,-15 405,-368 1284,-191 42,9 70,50 61,93 -8,42 -50,69 -92,61 -793,-160 -1142,149 -1146,152 -15,13 -34,20 -53,20z"/>
  <path class="fil7" d="M2949 21333c0,0 114,-205 1317,-371 -249,427 -746,630 -746,630l-571 -259z"/>
  <path class="fil0" d="M4327 23656c1126,1109 2214,1531 2988,969 696,-506 1224,-1964 327,-3529 -445,-776 -1076,-1603 -1490,-2013 -222,-72 -818,1100 -1671,1728 -797,587 -1209,610 -1532,522 159,507 738,1693 1378,2323z"/>
  <path class="fil4" d="M4504 22810c75,102 219,123 321,48 102,-75 124,-219 49,-321 -75,-102 -219,-124 -321,-49 -102,76 -124,219 -49,322z"/>
  <path class="fil4" d="M6074 21586c75,102 219,124 321,49 102,-76 124,-219 49,-321 -75,-103 -219,-124 -321,-49 -102,75 -124,219 -49,321z"/>
  <path class="fil4" d="M5466 22279c26,346 50,773 50,773 0,0 269,186 602,-51 -182,44 -389,51 -468,-177 -79,-228 -184,-545 -184,-545z"/>
  <path class="fil4" d="M4030 22659c1,0 3,-1 4,-1 52,-4 90,-49 87,-100 -19,-251 219,-356 222,-357 47,-20 70,-75 49,-123 -20,-48 -75,-70 -123,-50 -15,7 -365,160 -336,544 4,50 47,88 97,87z"/>
  <path class="fil4" d="M6487 20935c0,1 -1,2 -1,4 -24,46 -80,64 -127,41 -224,-115 -412,66 -414,67 -37,37 -97,36 -133,-1 -36,-37 -35,-97 2,-133 11,-11 288,-275 631,-101 45,23 63,77 42,123z"/>
  <path class="fil4" d="M5875 23871c-80,0 -132,-6 -136,-7 -54,-7 -91,-56 -84,-110 7,-53 56,-91 109,-84 38,5 876,104 1034,-695 10,-52 62,-87 115,-76 53,10 87,61 77,114 -102,513 -440,718 -706,799 -157,48 -306,59 -409,59z"/>
  <path class="fil4" d="M5326 24101c-19,-2 -38,0 -57,3 1,-3 1,-6 2,-10 25,-196 -69,-369 -209,-386 -23,-3 -46,-1 -69,4 -26,-123 -102,-215 -202,-227 -40,-5 -79,3 -116,21 -18,-124 -101,-223 -214,-237 -140,-18 -271,103 -292,270 -22,167 75,317 216,335 35,4 70,0 103,-12 -3,172 86,315 213,332 23,2 46,0 68,-5 26,123 102,215 203,228 37,4 73,-3 107,-18 12,111 84,201 183,213 118,15 229,-87 247,-228 18,-141 -64,-268 -183,-283z"/>
  <path class="fil4" d="M9390 22461c-679,645 -1250,159 -1415,32 -181,-137 -461,-243 -623,-145 -166,102 -287,241 -412,133 -174,-151 231,-594 653,-450 0,0 -329,-119 -502,3 -189,133 -329,232 -445,164 -63,-36 -92,-135 -35,-216 -103,35 -301,20 -267,-109 107,-408 576,-804 1184,-698 -628,-369 -913,207 -1126,134 -128,-43 -77,-202 -12,-292 212,-288 574,-426 927,-373 353,53 812,342 888,691 0,0 498,255 804,128l381 998z"/>
  <path class="fil16" d="M13019 14945c412,411 3260,3961 2183,6083 -1049,-240 -1775,-1076 -1775,-1076 0,0 -2269,-3528 -2045,-4497 204,-879 1148,-997 1637,-510z"/>
  <path class="fil16" d="M9009 21463l4418 -1511c0,0 967,-129 1775,1076 -382,631 -3028,1680 -5725,1629 -333,-352 -468,-1194 -468,-1194z"/>
  <path class="fil20" d="M10484 21848c0,0 1296,-1958 1869,-2356 573,-397 147,2101 147,2101l-2016 255z"/>
  <path class="fil0" d="M15112 16232l1596 -532 -333 1601c0,0 -695,1253 -1355,1037 -660,-215 -338,-769 -338,-769l430 -1337z"/>
  <path class="fil0" d="M17286 13944c72,1521 -1133,2771 -2033,2855 -991,93 -2220,-1131 -2292,-2652 -71,-1521 839,-2799 2033,-2855 1195,-56 2221,1131 2292,2652z"/>
  <path class="fil4" d="M15757 13590c-16,-6 -34,-6 -52,0 -252,91 -500,-93 -503,-95 -34,-26 -83,-19 -109,15 -26,34 -20,83 14,109 13,10 317,238 651,118 41,-14 62,-59 47,-100 -8,-23 -26,-40 -48,-47z"/>
  <path class="fil4" d="M13055 14171c-3,8 -5,16 -6,25 -3,43 29,80 73,84 334,25 495,-240 502,-252 22,-37 10,-85 -28,-107 -37,-22 -85,-10 -107,27 -5,9 -120,193 -356,176 -34,-3 -65,17 -78,47z"/>
  <path class="fil4" d="M14315 14707c-73,138 -133,275 -214,367 -27,31 -25,78 4,107 122,120 391,169 553,189 24,3 33,-30 12,-40 -183,-85 -273,-161 -314,-205 -20,-22 -29,-52 -23,-82 13,-67 37,-205 49,-316 4,-38 -49,-54 -67,-20z"/>
  <path class="fil0" d="M16920 13778c-210,289 -188,664 49,836 237,172 600,76 810,-213 210,-290 189,-665 -48,-837 -238,-172 -600,-76 -811,214z"/>
  <path class="fil4" d="M17284 14453c-12,-2 -23,-7 -33,-15 -145,-108 -200,-261 -147,-409 53,-151 204,-257 357,-251 43,2 77,38 76,81 -2,43 -39,77 -82,75 -84,-3 -173,62 -204,148 -29,82 4,164 94,231 34,26 41,75 15,110 -18,24 -48,35 -76,30z"/>
  <path class="fil4" d="M15615 14081c25,131 -60,257 -190,283 -130,25 -257,-60 -282,-190 -26,-130 59,-257 189,-282 131,-26 257,59 283,189z"/>
  <path class="fil4" d="M13896 14419c25,131 -60,257 -190,282 -130,26 -256,-59 -282,-189 -26,-130 59,-257 189,-282 131,-26 257,59 283,189z"/>
  <path class="fil0" d="M17524 14624c0,0 88,-41 120,-77 -67,-39 -248,-56 -248,-56 0,0 61,53 -5,133 36,4 133,0 133,0z"/>
  <path class="fil21" d="M15333 15961c31,180 -194,227 -404,263 -210,36 -470,73 -501,-107 -31,-181 202,-373 412,-410 210,-36 462,73 493,254z"/>
  <path class="fil22" d="M20000 28566c-18,3 -36,6 -54,9 -120,21 -237,39 -350,54 -2346,317 -3241,-497 -4666,-603 -430,-32 -909,0 -1490,148 -55,17 -112,35 -170,54 -267,85 -560,185 -872,293 81,-692 197,-1377 403,-2023 67,-210 144,-416 231,-616 15,-35 31,-69 47,-104 108,-235 233,-462 377,-681l155 -1 2405 -23 447 -4 1936 -18c34,32 67,65 99,98l1 0c100,103 195,211 283,322 395,497 673,1075 881,1716l0 0c39,120 75,243 110,368 89,324 163,662 227,1011z"/>
  <path class="fil23" d="M13063 24378c-70,-1074 -1106,-2623 -730,-3737 269,-893 779,-2903 1467,-3081 279,-72 546,-129 929,-138 0,0 -106,849 356,856 889,13 1319,-1114 1319,-1114 474,-76 2243,324 2345,731 86,1407 -403,3153 -678,4698 -19,780 201,1395 307,1828 171,448 435,937 443,1036 0,0 -3584,1407 -5745,393 0,0 34,-747 -13,-1472z"/>
  <path class="fil20" d="M19890 22472c0,0 49,-3831 -1213,-4693 -341,-213 -787,533 -597,1413 190,880 1810,3280 1810,3280z"/>
  <path class="fil0" d="M17554 17472c0,0 3463,4713 2111,5766 -1531,1192 -2760,-3181 -2903,-5766 481,1 792,0 792,0z"/>
  <path class="fil0" d="M16763 17499c-458,-805 84,-1170 245,-1299 174,-140 343,-384 286,-563 -57,-184 -162,-333 -29,-427 186,-132 515,362 277,733 0,0 192,-287 116,-482 -83,-213 -145,-372 -52,-467 49,-51 151,-56 215,19 -8,-108 52,-294 168,-231 367,199 636,743 391,1301 502,-515 17,-925 137,-1112 72,-113 213,-27 283,58 227,271 273,651 139,978 -135,326 -521,699 -874,689 0,0 -442,482 -492,803l-810 0z"/>
  <path class="fil7" d="M13184 16298c0,0 460,18 672,643 -461,85 -672,-643 -672,-643z"/>
  <path class="fil21" d="M16121 19879c-681,1285 -2059,1652 -2817,1442 -548,-151 -1379,-1158 -1053,-2669 178,-822 665,-1876 933,-2354 76,223 565,694 1498,1043 872,326 1986,34 2160,279 -14,500 -325,1513 -721,2259z"/>
  <path class="fil0" d="M15244 19084c-42,112 -167,169 -278,127 -112,-42 -169,-167 -127,-278 42,-112 166,-169 278,-127 112,42 169,166 127,278z"/>
  <path class="fil0" d="M13544 18512c-42,112 -166,168 -278,127 -112,-42 -168,-167 -126,-278 41,-112 166,-169 278,-127 111,42 168,166 126,278z"/>
  <path class="fil0" d="M14102 18758c-268,186 -602,410 -602,410 0,0 -22,307 330,463 -124,-126 -228,-290 -82,-464 147,-173 354,-409 354,-409z"/>
  <path class="fil0" d="M14411 20333c53,-42 39,-129 -23,-141 -157,-29 -415,-83 -652,-161 -238,-78 -478,-187 -622,-256 -57,-27 -119,35 -101,100 55,200 199,523 563,642 364,120 672,-56 835,-184z"/>
  <path class="fil0" d="M15570 19009c-46,0 -83,-36 -86,-82 -18,-322 -342,-319 -379,-318 -48,2 -88,-35 -90,-82 -2,-48 35,-88 82,-90 184,-9 536,81 559,480 3,48 -34,89 -81,91 -2,0 -4,1 -5,1z"/>
  <path class="fil0" d="M13714 18058c-16,0 -33,-4 -48,-14l0 0c-11,-8 -290,-190 -511,-6 -36,31 -90,26 -121,-10 -31,-37 -26,-91 11,-122 256,-215 582,-97 718,-5 39,27 50,80 23,120 -17,24 -44,37 -72,37z"/>
  <path class="fil0" d="M14711 21510c-226,-352 -529,-542 -428,-1081 38,-195 94,-396 152,-631 89,-362 222,-655 301,-656 180,0 218,106 203,328 -11,171 -151,375 -51,493 88,106 228,190 675,-162 572,-450 696,-707 864,-536 110,111 -157,358 -688,794 357,-117 910,-868 1104,-605 141,191 -767,813 -1025,922 515,-93 990,-726 1109,-629 239,217 -471,776 -927,888 465,10 698,-380 798,-270 187,205 -610,767 -1153,906 -160,41 -934,239 -934,239z"/>
  <path class="fil0" d="M14271 20744c0,0 -1699,564 -3105,766 -1406,202 -1121,2165 100,1930 935,-181 3445,-1930 3445,-1930l-440 -766z"/>
  <path class="fil24" d="M32548 18936c0,0 3116,2878 2893,6796 13,497 -3079,-2014 -3079,-2014l35 -1175 151 -3607z"/>
  <path class="fil24" d="M26722 18936c0,0 -3160,2878 -2937,6796 -13,497 3079,-2014 3079,-2014l-142 -4782z"/>
  <path class="fil25" d="M33047 22493c-4,105 -11,223 -20,352 -11,138 -25,288 -41,448 -27,258 -60,543 -97,844 -14,109 -28,220 -42,333 -11,86 -22,173 -33,260 -192,1499 -425,3227 -380,4157 -261,25 -516,46 -764,62 -1815,117 -3285,2 -4629,-158 -151,-18 -300,-36 -448,-55 18,-334 12,-752 -8,-1214 -37,-833 -121,-1812 -199,-2710 1,0 0,0 0,0 -14,-163 -28,-324 -41,-480 -6,-64 -11,-127 -16,-189l0 0c-42,-495 -77,-942 -95,-1295 -7,-155 -12,-291 -12,-406 0,-1215 500,-3506 500,-3506l691 -178 138 -36 448 -116 359 -93 828 -10 985 -12 162 -2 42 -1 697 144 140 29 57 12 23 4 642 132 0 0 614 127c0,0 0,0 0,0 4,23 290,1492 427,2599 0,1 0,1 0,1 13,107 25,212 36,311 1,9 1,17 2,26l0 0c25,249 39,465 34,620z"/>
  <path class="fil0" d="M32004 16308c-93,1825 -1146,3296 -2449,3230 -1302,-66 -2360,-1644 -2267,-3470 93,-1826 1224,-3252 2526,-3186 1302,66 2283,1600 2190,3426z"/>
  <path class="fil15" d="M28251 16934c0,0 39,362 488,392 381,25 406,-439 406,-439 0,0 -306,233 -894,47z"/>
  <path class="fil15" d="M30246 16909c0,0 42,361 475,357 411,-4 414,-428 414,-428 0,0 -301,257 -889,71z"/>
  <path class="fil21" d="M29692 18320c-372,-4 -666,284 -664,416 2,201 328,68 700,72 372,4 648,144 647,-57 -1,-120 -311,-427 -683,-431z"/>
  <path class="fil4" d="M30698 17087c-202,0 -399,-100 -452,-172 -27,-37 -14,-85 28,-108 42,-23 98,-12 124,24 23,28 165,105 314,100 117,-4 211,-57 279,-159 25,-37 81,-49 124,-28 42,22 57,70 32,107 -130,191 -311,234 -440,236 -3,0 -6,0 -9,0z"/>
  <path class="fil4" d="M28690 17129c-202,-10 -391,-119 -439,-195 -24,-37 -9,-85 35,-105 43,-21 98,-8 122,30 21,29 158,113 307,115 116,2 214,-46 289,-144 28,-36 84,-45 125,-22 42,24 53,73 25,108 -142,185 -326,218 -455,214 -3,-1 -6,-1 -9,-1z"/>
  <path class="fil4" d="M31195 16561c-687,0 -930,-441 -940,-460 -30,-57 -9,-127 48,-157 56,-30 126,-9 156,47 9,16 200,345 755,338 64,-1 117,50 118,114 1,65 -51,117 -115,118 -7,0 -14,0 -22,0z"/>
  <path class="fil4" d="M28271 16561c-8,0 -15,0 -22,0 -64,-1 -116,-53 -115,-118 1,-64 54,-115 118,-114 557,8 747,-324 755,-338 30,-57 100,-78 156,-48 57,30 78,101 48,158 -10,19 -253,460 -940,460z"/>
  <path class="fil4" d="M29830 17019l136 821c10,57 -36,108 -93,106l-528 -24c0,0 316,-45 383,-249 68,-203 102,-654 102,-654z"/>
  <path class="fil15" d="M29487 19032c124,-108 335,-110 458,0 -156,-8 -300,-6 -458,0z"/>
  <path class="fil21" d="M31970 21400c-235,1589 -1287,2549 -2190,2547 -748,-1 -2160,-568 -2447,-2417 -143,-918 -119,-1994 -16,-2591 145,-194 1337,347 2437,366 1028,18 1909,-607 2181,-415 170,525 171,1588 35,2510z"/>
  <path class="fil0" d="M29832 21302c186,308 344,769 344,769 0,0 -264,87 -689,86 181,-72 376,-153 377,-283 3,-251 -32,-572 -32,-572z"/>
  <path class="fil0" d="M31225 20641c-23,0 -47,-11 -63,-31 -270,-355 -628,-144 -643,-135 -38,22 -86,11 -109,-27 -23,-37 -11,-85 26,-108 170,-104 566,-202 852,174 26,35 20,85 -15,111 -14,11 -31,16 -48,16z"/>
  <path class="fil0" d="M28146 20641c24,0 47,-11 63,-31 270,-355 628,-144 644,-135 37,22 85,11 108,-27 23,-37 11,-85 -26,-108 -169,-104 -566,-202 -852,174 -26,35 -20,85 15,111 14,11 31,16 48,16z"/>
  <path class="fil0" d="M30747 21266c-188,0 -350,-75 -439,-142 -49,-36 -58,-106 -22,-155 37,-48 106,-58 155,-22 14,11 328,237 646,-37 46,-40 116,-35 156,12 40,46 35,116 -12,156 -162,139 -331,188 -484,188z"/>
  <path class="fil0" d="M28652 21265c-189,-8 -348,-89 -434,-160 -47,-38 -54,-108 -15,-155 39,-47 108,-54 155,-16 14,11 319,250 648,-11 47,-38 117,-30 155,18 38,48 30,118 -18,156 -168,133 -339,174 -491,168z"/>
  <path class="fil0" d="M29819 22990c-80,0 -162,-7 -245,-22 -282,-50 -479,-167 -488,-171 -52,-32 -69,-100 -38,-152 32,-52 99,-70 152,-38 4,2 178,103 419,145 316,54 596,-15 832,-205 47,-39 117,-31 155,17 39,47 31,117 -17,155 -223,179 -485,271 -770,271z"/>
  <path class="fil0" d="M26600 22522c0,0 -2341,2075 -2941,2692 -1128,1159 420,2809 1513,1490 1095,-1322 1797,-3155 2057,-3706l-629 -476z"/>
  <path class="fil0" d="M32639 22498c0,0 2333,2084 2931,2703 1123,1164 -432,2808 -1519,1484 -1090,-1326 -1785,-3161 -2043,-3714l631 -473z"/>
  <path class="fil0" d="M26884 23124c803,-148 776,-624 771,-806 -4,-197 65,-450 217,-513 157,-65 317,-79 305,-223 -16,-200 -537,-142 -652,230 0,0 85,-293 260,-352 191,-65 333,-113 345,-230 6,-63 -48,-134 -135,-135 77,-55 168,-202 60,-244 -343,-135 -862,-7 -1100,475 63,-631 614,-537 673,-724 35,-113 -103,-159 -200,-159 -311,2 -595,186 -739,462 -143,277 -175,748 31,981 0,0 -44,570 -233,786l397 452z"/>
  <path class="fil0" d="M32419 23114c-803,-148 -776,-624 -772,-806 5,-197 -64,-450 -217,-513 -157,-65 -317,-79 -305,-223 17,-200 537,-142 652,230 0,0 -85,-293 -259,-352 -191,-65 -333,-113 -345,-230 -6,-63 48,-134 135,-135 -77,-55 -169,-202 -61,-244 343,-135 863,-7 1101,475 -63,-631 -615,-537 -673,-724 -36,-113 103,-159 200,-159 311,2 594,186 738,462 144,276 176,748 -31,981 0,0 45,570 234,786l-397 452z"/>
 </g>
</svg>
